<svg id="svg" version="1.1" width="400" height="56.79939894815927" viewBox="0 0 400 56.79939894815927" xmlns="http://www.w3.org/2000/svg" xmlns:xlink="http://www.w3.org/1999/xlink" ><g id="svgg"><path id="path0" d="M194.833 18.243 C 181.465 20.624,182.801 39.932,196.333 39.914 C 201.097 39.907,205.381 37.157,202.958 35.661 C 202.311 35.261,201.886 35.331,200.820 36.011 C 195.358 39.499,188.167 35.569,188.167 29.096 C 188.167 22.359,195.283 18.638,201.106 22.331 C 202.677 23.327,204.299 22.326,203.508 20.848 C 203.056 20.004,200.182 18.606,198.333 18.330 C 196.352 18.035,196.041 18.027,194.833 18.243 M48.750 18.276 C 43.258 18.899,39.232 23.555,39.261 29.250 C 39.308 38.695,50.684 43.578,57.597 37.122 C 65.397 29.837,59.402 17.067,48.750 18.276 M276.333 18.327 C 267.368 19.627,263.841 30.399,270.250 36.906 C 275.234 41.967,284.265 40.656,287.535 34.397 C 291.772 26.284,285.317 17.024,276.333 18.327 M12.310 18.819 L 11.917 19.137 11.917 29.083 L 11.917 39.029 12.310 39.348 C 12.871 39.802,13.754 39.761,14.258 39.258 L 14.667 38.848 14.667 31.351 C 14.667 23.847,14.702 23.371,15.206 24.052 C 18.678 28.740,26.314 38.869,26.632 39.208 C 27.323 39.944,28.486 39.832,28.923 38.988 C 29.237 38.381,29.292 19.957,28.982 19.276 C 28.607 18.453,27.397 18.255,26.742 18.909 L 26.333 19.318 26.333 26.816 C 26.333 30.940,26.273 34.351,26.200 34.396 C 26.031 34.500,26.237 34.763,19.845 26.250 C 13.440 17.720,13.542 17.821,12.310 18.819 M67.673 18.865 C 67.231 19.339,67.228 20.228,67.667 20.667 C 67.977 20.977,68.222 21.000,71.250 21.000 L 74.500 21.000 74.500 29.924 L 74.500 38.848 74.909 39.258 C 75.413 39.761,76.295 39.802,76.857 39.348 L 77.250 39.030 77.333 30.056 L 77.417 21.083 80.577 21.038 C 84.136 20.987,84.500 20.867,84.500 19.750 C 84.500 18.469,84.713 18.500,75.871 18.500 L 68.013 18.500 67.673 18.865 M97.356 18.770 C 96.918 19.076,96.528 19.886,94.832 24.000 C 94.171 25.604,93.495 27.217,93.331 27.583 C 93.166 27.950,92.754 28.925,92.415 29.750 C 92.075 30.575,91.629 31.625,91.422 32.083 C 91.215 32.542,90.988 33.104,90.917 33.333 C 90.846 33.563,90.618 34.125,90.412 34.583 C 88.867 38.009,88.721 38.680,89.386 39.304 C 90.373 40.232,91.404 39.590,92.217 37.540 C 92.965 35.658,94.316 32.345,94.512 31.917 C 94.596 31.733,95.447 29.671,96.404 27.333 L 98.143 23.083 98.655 24.224 C 98.936 24.851,99.167 25.455,99.167 25.566 C 99.167 25.676,99.232 25.838,99.312 25.925 C 99.393 26.012,99.699 26.721,99.994 27.500 C 100.289 28.279,100.644 29.179,100.782 29.500 C 101.129 30.302,101.101 30.235,103.012 34.966 C 104.803 39.398,104.971 39.667,105.962 39.667 C 106.569 39.667,107.333 39.014,107.333 38.495 C 107.333 38.246,106.593 36.341,105.715 34.333 C 105.160 33.063,104.996 32.675,104.160 30.667 C 103.683 29.521,103.145 28.208,102.965 27.750 C 102.784 27.292,102.500 26.617,102.334 26.250 C 102.167 25.883,101.754 24.908,101.416 24.083 C 101.077 23.258,100.703 22.358,100.584 22.083 C 100.465 21.808,100.145 21.031,99.872 20.357 C 99.112 18.476,98.408 18.033,97.356 18.770 M116.572 18.913 L 116.159 19.326 116.204 29.178 L 116.250 39.030 116.643 39.348 C 117.222 39.816,118.093 39.763,118.588 39.229 C 118.984 38.802,118.994 38.720,119.038 35.604 L 119.083 32.417 122.000 32.314 C 126.392 32.160,127.886 31.386,129.358 28.500 C 129.959 27.323,130.181 24.117,129.729 23.151 C 128.977 21.540,128.713 21.117,128.030 20.425 C 126.462 18.834,125.135 18.500,120.386 18.500 C 116.988 18.500,116.984 18.500,116.572 18.913 M139.384 18.902 L 138.917 19.304 138.868 28.610 C 138.815 38.567,138.827 38.826,139.372 39.334 C 139.716 39.654,139.964 39.667,146.002 39.667 L 152.275 39.667 152.649 39.269 C 153.182 38.702,153.085 37.742,152.446 37.267 C 151.999 36.934,151.727 36.913,146.863 36.833 L 141.750 36.750 141.667 27.944 L 141.583 19.137 141.190 18.819 C 140.655 18.385,139.947 18.418,139.384 18.902 M168.361 18.766 C 168.048 18.986,167.167 20.566,167.167 20.908 C 167.167 20.961,167.019 21.322,166.839 21.710 C 166.537 22.359,165.040 25.922,162.969 30.917 C 162.513 32.017,162.040 33.142,161.919 33.417 C 159.635 38.591,159.524 39.667,161.275 39.667 C 162.341 39.667,162.532 39.310,165.906 31.036 C 167.636 26.794,169.127 23.348,169.218 23.378 C 169.310 23.409,170.119 25.267,171.016 27.509 C 171.914 29.750,172.759 31.846,172.894 32.167 C 173.718 34.120,175.500 38.656,175.500 38.802 C 175.500 39.509,177.172 39.903,177.848 39.355 C 178.506 38.822,178.310 37.864,176.907 34.750 C 176.783 34.475,176.525 33.844,176.332 33.347 C 176.140 32.850,175.845 32.137,175.676 31.763 C 175.508 31.389,174.829 29.771,174.167 28.167 C 173.505 26.563,172.797 24.875,172.593 24.417 C 172.388 23.958,171.816 22.585,171.321 21.364 C 170.140 18.453,169.549 17.934,168.361 18.766 M214.106 18.845 L 213.667 19.191 213.667 29.066 L 213.667 38.942 214.052 39.304 C 214.502 39.726,227.338 39.885,228.228 39.480 C 228.935 39.158,229.035 38.186,228.424 37.576 L 228.015 37.167 222.258 37.167 L 216.500 37.167 216.500 33.750 L 216.500 30.333 220.511 30.333 C 225.154 30.333,225.647 30.204,225.661 28.977 C 225.676 27.802,225.495 27.755,220.761 27.700 L 216.493 27.651 216.538 24.367 L 216.583 21.083 222.365 21.040 L 228.146 20.996 228.503 20.542 C 228.931 19.997,228.849 19.236,228.314 18.792 C 227.723 18.301,214.736 18.350,214.106 18.845 M238.977 18.819 L 238.583 19.137 238.583 29.083 L 238.583 39.029 238.977 39.348 C 239.555 39.817,240.426 39.763,240.922 39.229 C 241.327 38.791,241.328 38.786,241.372 34.520 L 241.417 30.250 247.667 30.250 L 253.917 30.250 254.000 34.500 C 254.085 38.822,254.162 39.334,254.759 39.564 C 255.340 39.787,256.022 39.660,256.428 39.254 L 256.841 38.841 256.796 28.989 L 256.750 19.137 256.357 18.819 C 256.140 18.643,255.753 18.500,255.495 18.500 C 254.093 18.500,254.000 18.820,254.000 23.658 L 254.000 27.667 247.667 27.667 L 241.333 27.667 241.333 23.524 L 241.333 19.382 240.925 18.941 C 240.426 18.403,239.557 18.349,238.977 18.819 M299.409 18.909 L 299.000 19.318 299.000 29.083 L 299.000 38.848 299.409 39.258 L 299.818 39.667 306.084 39.667 L 312.349 39.667 312.758 39.226 C 313.463 38.465,313.228 37.481,312.242 37.069 C 311.798 36.884,310.623 36.833,306.755 36.833 L 301.833 36.833 301.833 28.358 C 301.833 19.621,301.790 19.000,301.160 18.663 C 300.609 18.368,299.842 18.476,299.409 18.909 M322.759 18.892 L 322.333 19.318 322.333 29.083 L 322.333 38.848 322.757 39.273 L 323.182 39.697 327.216 39.630 C 331.307 39.563,331.832 39.491,333.333 38.788 C 340.633 35.373,341.364 24.428,334.583 20.090 C 332.559 18.795,331.711 18.617,327.218 18.537 L 323.185 18.466 322.759 18.892 M349.939 18.845 L 349.500 19.191 349.500 28.990 C 349.500 38.650,349.505 38.795,349.845 39.228 L 350.191 39.667 356.994 39.667 C 364.710 39.667,364.567 39.690,364.567 38.417 C 364.567 37.164,364.581 37.167,358.065 37.167 L 352.333 37.167 352.333 33.750 L 352.333 30.333 356.342 30.333 C 360.735 30.333,361.224 30.243,361.438 29.390 C 361.820 27.870,361.238 27.672,356.371 27.669 L 352.326 27.667 352.371 24.375 L 352.417 21.083 358.184 21.040 C 364.680 20.990,364.567 21.014,364.567 19.720 C 364.567 18.483,364.672 18.500,357.087 18.500 C 350.552 18.500,350.367 18.509,349.939 18.845 M374.956 18.708 C 374.805 18.823,374.603 19.128,374.508 19.386 C 374.312 19.913,374.287 38.132,374.481 38.828 C 374.633 39.372,375.544 39.900,376.092 39.763 C 377.165 39.493,377.165 39.494,377.166 29.875 L 377.167 21.167 379.505 21.167 C 381.170 21.167,382.010 21.236,382.422 21.408 C 386.261 23.012,385.590 28.238,381.458 28.913 C 379.399 29.249,379.611 30.037,383.124 35.103 C 386.536 40.022,387.060 40.464,388.104 39.310 C 388.833 38.505,388.778 38.399,384.324 32.105 L 383.750 31.293 384.243 30.938 C 389.456 27.186,388.586 20.277,382.708 18.746 C 381.464 18.422,375.372 18.392,374.956 18.708 M53.571 21.572 C 58.150 23.774,59.848 29.352,57.185 33.445 C 52.603 40.487,41.836 37.287,41.950 28.917 C 42.030 23.043,48.339 19.055,53.571 21.572 M279.628 20.993 C 285.000 22.011,287.863 28.454,285.080 33.262 C 281.361 39.689,271.158 38.010,269.814 30.750 C 269.604 29.619,269.713 27.307,270.010 26.572 C 271.750 22.268,275.348 20.181,279.628 20.993 M124.889 21.495 C 128.125 23.148,128.142 27.707,124.917 29.374 C 124.332 29.676,123.933 29.720,121.667 29.734 L 119.083 29.750 119.039 25.586 C 119.014 23.296,119.033 21.321,119.081 21.196 C 119.251 20.754,123.907 20.994,124.889 21.495 M331.131 21.321 C 333.569 22.063,335.077 23.606,336.192 26.500 C 336.534 27.387,336.487 30.867,336.121 31.883 C 334.751 35.676,332.401 37.162,327.679 37.220 L 325.250 37.250 325.207 29.125 L 325.163 21.000 327.623 21.001 C 329.566 21.002,330.304 21.070,331.131 21.321 " stroke="none" fill="#cccccc" fill-rule="evenodd"></path></g></svg>