<?xml version="1.0" standalone="no"?>
<!DOCTYPE svg PUBLIC "-//W3C//DTD SVG 20010904//EN"
 "http://www.w3.org/TR/2001/REC-SVG-20010904/DTD/svg10.dtd">
<svg version="1.0" xmlns="http://www.w3.org/2000/svg"
 width="800.000000pt" height="800.000000pt" viewBox="0 0 800.000000 800.000000"
 preserveAspectRatio="xMidYMid meet">
<metadata>
Created by potrace 1.11, written by Peter Selinger 2001-2013
</metadata>
<g transform="translate(0.000000,800.000000) scale(0.100000,-0.100000)"
fill="#000000" stroke="none">
<path d="M3945 7910 c-5 -8 -127 -72 -340 -178 -71 -36 -137 -71 -145 -77 -8
-7 -33 -19 -55 -26 -22 -7 -51 -21 -64 -31 -13 -10 -32 -18 -41 -18 -10 0 -23
-7 -30 -15 -7 -8 -16 -15 -21 -15 -8 0 -117 -50 -289 -133 -36 -17 -68 -32
-72 -33 -5 -1 -11 -3 -15 -4 -5 -1 -11 -2 -15 -1 -5 0 -8 -4 -8 -9 0 -6 -6
-10 -12 -10 -7 -1 -31 -9 -53 -20 -22 -11 -43 -19 -46 -20 -3 0 -37 -14 -75
-32 -38 -17 -73 -33 -79 -34 -33 -9 -271 -109 -273 -116 -2 -5 -8 -6 -13 -3
-4 3 -22 -1 -39 -10 -16 -8 -30 -13 -30 -10 0 4 -12 -1 -27 -9 -31 -16 -109
-46 -134 -51 -8 -2 -33 -11 -55 -20 -41 -17 -162 -58 -179 -61 -10 -1 -16 -3
-60 -20 -11 -4 -24 -6 -29 -5 -4 1 -18 -4 -30 -12 -18 -12 -79 -32 -125 -42
-9 -2 -32 -9 -51 -16 -56 -19 -64 -22 -80 -25 -40 -8 -206 -59 -216 -66 -7 -5
-14 -22 -17 -38 -7 -35 -15 -65 -17 -65 -1 0 -3 -7 -5 -15 -1 -8 -12 -46 -25
-85 -12 -38 -23 -78 -26 -87 -2 -10 -6 -26 -8 -35 -3 -10 -12 -38 -20 -62 -9
-24 -18 -53 -20 -65 -2 -12 -13 -44 -24 -72 -12 -29 -18 -55 -15 -58 4 -3 0
-6 -7 -6 -7 0 -11 -3 -8 -6 5 -5 -28 -117 -49 -164 -3 -8 -7 -18 -8 -22 -2 -5
-3 -9 -5 -10 -1 -2 -3 -10 -5 -18 -2 -8 -17 -50 -33 -92 -17 -43 -28 -78 -25
-78 2 0 -5 -13 -16 -29 -11 -15 -18 -31 -15 -33 3 -3 -7 -32 -22 -64 -14 -32
-27 -63 -29 -68 -1 -6 -7 -22 -12 -36 -6 -14 -29 -71 -52 -128 -23 -57 -53
-126 -66 -153 -14 -27 -26 -52 -27 -56 -1 -8 -33 -79 -99 -221 -22 -46 -39
-85 -39 -87 0 -3 -54 -115 -119 -250 -66 -135 -120 -249 -121 -253 -1 -4 -6
-12 -12 -19 -5 -7 -24 -40 -42 -75 -18 -35 -63 -120 -99 -190 l-66 -128 32
-62 c37 -71 56 -106 69 -128 15 -28 375 -755 391 -790 8 -19 31 -70 51 -112
20 -42 36 -79 36 -82 0 -2 18 -43 40 -90 22 -47 40 -89 40 -94 0 -5 6 -22 14
-38 33 -69 72 -164 136 -334 17 -47 36 -94 42 -105 5 -12 10 -27 12 -35 2 -8
8 -28 14 -43 7 -16 12 -31 12 -34 0 -3 6 -19 14 -36 13 -30 52 -143 60 -177 2
-8 14 -42 26 -75 12 -33 25 -73 30 -90 4 -16 14 -50 23 -75 15 -45 67 -222 71
-243 10 -47 30 -105 43 -118 11 -14 68 -34 105 -39 4 0 27 -8 50 -16 24 -9 50
-17 58 -19 8 -1 33 -8 55 -14 22 -6 45 -11 50 -12 6 -1 33 -10 60 -21 28 -11
59 -22 69 -24 69 -13 634 -215 663 -237 7 -5 17 -6 23 -2 5 3 10 1 10 -4 0 -6
3 -10 8 -9 7 1 35 -9 97 -37 48 -21 69 -28 78 -27 4 1 7 -3 7 -10 0 -6 3 -8 6
-5 4 4 19 0 33 -8 14 -8 60 -28 101 -45 41 -17 89 -37 105 -45 81 -37 126 -55
135 -55 5 0 10 -4 10 -10 0 -5 5 -10 11 -10 13 0 89 -35 265 -121 66 -32 126
-59 132 -59 7 0 12 -4 12 -10 0 -5 6 -10 13 -10 6 -1 41 -16 77 -35 36 -19
117 -60 180 -91 63 -32 117 -61 118 -66 2 -4 12 -8 22 -8 10 0 20 -3 22 -7 2
-5 30 -21 63 -37 33 -16 67 -35 76 -43 25 -21 72 -19 110 4 148 90 1062 540
1110 547 8 1 187 84 222 102 15 9 27 13 27 10 0 -3 28 8 63 24 34 15 71 30 82
32 11 1 22 5 25 8 6 6 166 71 183 74 7 1 30 10 51 20 22 9 51 19 65 23 13 3
36 12 50 19 14 8 32 14 39 14 7 0 20 4 30 10 14 8 177 66 207 74 63 16 106 29
138 41 20 8 37 11 37 7 0 -4 4 -2 8 4 6 9 116 44 150 46 6 1 12 4 12 8 0 4 6
7 13 7 29 1 82 15 93 23 6 6 14 7 17 3 4 -3 13 0 22 7 8 7 15 10 15 7 0 -3 13
-1 30 4 16 6 27 15 24 20 -3 5 -1 9 4 9 5 0 9 6 9 13 1 17 67 252 103 362 16
50 43 135 60 190 17 55 36 109 41 120 5 11 23 60 40 109 17 49 35 100 41 115
6 14 12 28 12 31 2 10 38 105 51 135 34 78 63 155 58 155 -3 0 1 7 8 16 12 14
35 70 42 99 1 6 4 12 7 15 3 3 16 32 29 65 34 85 107 249 122 275 5 8 12 22
15 30 26 71 242 513 358 735 29 55 75 142 102 193 l48 93 -53 102 c-30 56 -86
165 -125 242 -40 77 -77 149 -83 160 -12 20 -155 314 -212 436 -17 37 -31 72
-31 78 0 6 -5 11 -11 11 -5 0 -7 5 -4 10 3 6 1 10 -6 10 -7 0 -9 3 -6 6 4 4
-2 23 -12 43 -17 34 -53 110 -72 156 -5 11 -27 63 -50 115 -22 52 -42 100 -43
105 -3 11 -11 30 -57 141 -17 40 -32 79 -33 86 -1 7 -7 22 -13 33 -8 16 -33
82 -38 105 -2 5 -19 49 -32 80 -3 8 -8 24 -10 35 -1 11 -7 29 -13 40 -12 24
-60 154 -65 175 -2 8 -13 43 -24 78 -10 34 -17 62 -14 62 3 0 1 6 -5 13 -5 6
-22 53 -37 102 -15 50 -32 106 -38 125 -6 19 -11 37 -12 40 0 3 -12 44 -25 92
-22 79 -28 89 -54 98 -16 5 -37 10 -47 10 -11 0 -19 5 -19 12 0 6 -3 9 -6 5
-3 -3 -29 2 -57 10 -29 8 -56 16 -62 18 -5 1 -17 5 -25 8 -8 3 -27 8 -42 11
-15 3 -40 11 -55 18 -15 6 -37 13 -48 15 -27 6 -37 9 -55 16 -8 3 -44 15 -80
27 -36 12 -72 25 -80 30 -9 4 -31 11 -50 16 -45 10 -41 9 -73 22 -16 7 -30 12
-32 12 -2 0 -16 5 -32 12 -15 6 -30 12 -33 13 -20 5 -63 19 -105 35 -91 34
-180 68 -210 81 -16 7 -34 13 -40 15 -5 1 -31 12 -57 23 -26 12 -51 22 -55 23
-5 1 -19 7 -32 14 -14 7 -28 11 -33 8 -4 -3 -8 -1 -8 4 0 5 -10 13 -22 17 -13
4 -25 8 -28 9 -3 1 -16 8 -30 16 -14 7 -26 12 -28 11 -1 -1 -23 8 -49 19 -26
11 -57 23 -70 26 -13 4 -23 10 -23 15 0 5 -5 9 -11 9 -10 0 -43 15 -176 77
-32 15 -65 28 -73 29 -8 2 -16 8 -18 13 -2 6 -9 11 -16 11 -16 0 -550 265
-587 291 -16 11 -29 18 -29 15 0 -5 -44 17 -152 78 -38 21 -60 26 -103 25 -31
-1 -58 -5 -60 -9z m-126 -631 c45 13 556 1 579 -12 4 -3 17 -4 28 -3 10 2 23
1 29 -2 9 -6 21 -8 101 -15 23 -2 46 -7 51 -10 6 -4 29 -9 50 -11 22 -2 49 -8
60 -14 11 -6 22 -9 25 -7 2 2 25 -2 51 -10 26 -8 51 -14 55 -15 4 0 32 -8 62
-17 30 -9 60 -17 65 -18 18 -2 70 -18 80 -24 6 -3 12 -6 15 -6 8 -1 96 -35
190 -72 80 -33 268 -123 335 -161 104 -60 187 -110 230 -141 28 -19 64 -44 80
-56 48 -33 141 -102 156 -117 8 -7 34 -29 59 -49 25 -20 75 -66 112 -101 37
-36 70 -63 73 -60 3 3 5 1 5 -4 0 -6 33 -44 73 -85 166 -173 310 -359 422
-549 22 -36 43 -66 47 -68 4 -2 8 -10 8 -19 0 -8 8 -27 18 -41 45 -64 189
-387 218 -487 8 -27 19 -59 23 -70 17 -40 31 -81 35 -105 3 -14 5 -26 5 -27 1
-2 1 -4 0 -5 0 -2 4 -15 10 -31 6 -15 13 -38 15 -50 9 -42 14 -62 25 -102 12
-45 23 -111 22 -137 0 -10 3 -18 7 -18 4 0 7 -12 8 -27 1 -16 4 -53 7 -83 19
-161 27 -287 27 -410 0 -85 -8 -305 -11 -305 -1 0 -3 -18 -4 -40 -3 -49 -13
-127 -20 -169 -3 -17 -8 -44 -10 -61 -2 -16 -4 -30 -5 -30 -1 0 -3 -9 -5 -20
-2 -17 -10 -52 -29 -140 -9 -43 -55 -212 -64 -235 -5 -14 -11 -29 -12 -35 -24
-95 -172 -436 -248 -570 -68 -120 -255 -402 -282 -425 -3 -3 -33 -39 -67 -80
-33 -41 -97 -112 -140 -158 -44 -45 -77 -84 -75 -87 3 -3 0 -5 -6 -5 -6 0 -36
-24 -67 -52 -85 -82 -161 -145 -268 -225 -40 -29 -77 -58 -84 -63 -7 -6 -16
-10 -22 -10 -5 0 -11 -4 -13 -9 -1 -5 -32 -27 -68 -50 -36 -22 -69 -44 -75
-48 -29 -23 -335 -178 -445 -226 -37 -16 -238 -87 -255 -91 -5 -1 -14 -4 -20
-8 -5 -3 -26 -9 -45 -14 -59 -13 -130 -33 -150 -41 -8 -3 -24 -7 -35 -7 -11
-1 -29 -5 -40 -9 -11 -3 -33 -8 -49 -11 -16 -3 -52 -10 -80 -16 -28 -6 -71
-12 -96 -15 -25 -2 -61 -6 -80 -9 -142 -18 -537 -25 -670 -12 -36 4 -86 9
-111 10 -26 2 -51 6 -58 10 -6 4 -16 4 -21 1 -6 -4 -19 -4 -28 0 -9 4 -26 9
-37 10 -11 2 -40 6 -65 10 -25 3 -51 7 -57 7 -7 1 -13 5 -13 10 0 5 -4 7 -8 4
-21 -13 -315 72 -512 147 -142 54 -401 181 -507 250 -24 15 -47 27 -52 27 -5
0 -11 3 -13 8 -1 4 -39 32 -83 61 -107 72 -215 154 -215 163 0 5 -4 8 -10 8
-5 0 -24 12 -42 27 -50 44 -378 370 -378 377 0 3 -14 21 -31 39 -17 17 -43 49
-57 69 -13 21 -29 38 -34 38 -5 0 -6 5 -3 10 3 6 2 10 -4 10 -5 0 -40 45 -78
101 -90 133 -101 150 -113 179 -6 13 -14 27 -18 30 -28 21 -172 323 -247 515
-15 39 -29 77 -30 85 -2 8 -4 15 -5 15 -1 0 -3 7 -6 15 -2 8 -22 83 -45 165
-22 83 -43 159 -44 170 -2 11 -7 31 -10 45 -3 14 -8 41 -11 60 -2 19 -7 47
-10 62 -41 198 -50 645 -19 901 10 75 14 103 19 137 3 19 8 49 11 65 2 17 7
41 10 55 3 14 7 34 9 45 2 11 6 29 9 40 3 11 8 31 11 45 3 14 12 50 21 80 9
30 18 62 20 71 7 32 54 175 75 229 12 30 27 70 33 88 6 17 13 32 17 32 4 0 7
6 7 13 1 40 162 341 271 507 64 98 182 258 217 296 5 6 39 44 75 85 80 90 161
171 269 269 46 41 94 85 107 98 13 12 26 22 29 22 3 0 27 17 54 38 27 20 61
46 76 57 16 11 34 26 41 33 7 6 15 12 18 12 3 0 34 19 68 43 35 23 95 60 133
82 39 21 84 46 101 55 51 29 99 54 104 55 3 1 34 15 70 32 119 56 173 79 210
88 3 1 16 6 30 12 81 33 143 53 151 48 5 -4 9 -1 9 4 0 6 9 11 20 11 11 0 36
6 55 14 19 8 51 17 71 21 21 3 62 12 91 21 29 9 70 18 91 20 20 3 53 9 72 14
32 8 92 17 165 25 17 1 30 4 30 5 0 1 28 3 63 4 34 2 65 6 69 10 4 3 11 2 16
-3 5 -5 21 -6 36 -2z"/>
<path d="M3865 7121 c-2 -2 -39 -5 -82 -7 -43 -2 -94 -5 -113 -8 -19 -3 -55
-8 -80 -11 -101 -13 -162 -23 -220 -36 -25 -5 -54 -11 -65 -13 -53 -10 -316
-90 -380 -116 -16 -7 -39 -16 -50 -20 -11 -5 -40 -17 -65 -28 -25 -11 -56 -23
-70 -27 -14 -4 -37 -16 -52 -26 -14 -11 -29 -19 -32 -19 -13 0 -142 -66 -156
-80 -3 -3 -30 -18 -60 -34 -30 -16 -95 -57 -144 -90 -48 -34 -96 -65 -104 -71
-9 -5 -24 -18 -33 -27 -9 -10 -20 -18 -25 -18 -5 0 -17 -8 -25 -17 -9 -10 -25
-25 -35 -33 -86 -68 -228 -195 -277 -247 -16 -17 -56 -60 -88 -94 -32 -34 -59
-65 -59 -68 0 -3 -18 -26 -40 -51 -47 -53 -43 -49 -103 -128 -26 -34 -47 -67
-47 -72 0 -6 -4 -10 -8 -10 -5 0 -18 -18 -31 -40 -12 -22 -34 -53 -48 -70 -13
-16 -22 -30 -19 -30 3 0 -9 -24 -26 -52 -56 -94 -115 -211 -161 -318 -40 -94
-95 -238 -101 -265 -2 -5 -15 -50 -30 -99 -16 -49 -29 -94 -30 -100 -1 -6 -5
-17 -10 -24 -4 -7 -6 -16 -3 -19 3 -2 -1 -26 -8 -51 -8 -26 -17 -65 -20 -87
-10 -62 -11 -64 -17 -71 -4 -3 -4 -12 -2 -19 3 -7 1 -31 -5 -53 -19 -71 -34
-263 -34 -447 0 -185 16 -408 31 -429 4 -6 7 -30 7 -53 0 -24 2 -43 6 -43 3 0
6 -10 6 -22 2 -32 12 -87 23 -123 5 -16 11 -41 14 -55 14 -73 83 -294 134
-425 52 -137 117 -271 182 -380 17 -27 38 -65 47 -82 9 -18 20 -33 25 -33 4 0
8 -5 8 -11 0 -9 75 -127 89 -139 3 -3 22 -27 41 -55 19 -27 40 -56 47 -63 6
-7 29 -34 50 -60 21 -26 41 -48 46 -50 4 -2 7 -8 7 -13 0 -10 254 -267 301
-304 62 -50 135 -111 146 -122 32 -29 249 -174 348 -231 97 -56 306 -162 319
-162 3 0 34 -13 68 -29 58 -26 153 -60 170 -61 4 -1 27 -8 50 -16 24 -9 50
-17 58 -19 8 -2 42 -12 75 -21 33 -9 67 -18 75 -19 8 -2 15 -4 15 -5 0 -2 4
-2 105 -21 36 -6 72 -14 80 -16 8 -3 31 -7 50 -9 18 -2 50 -6 70 -9 108 -18
196 -23 415 -24 134 0 290 4 290 9 0 1 18 3 40 5 22 2 60 6 85 10 25 4 56 8
70 10 14 1 36 5 50 8 14 4 39 8 55 11 17 2 48 8 70 14 22 6 51 13 65 15 14 3
49 12 78 20 28 9 52 13 52 10 0 -3 6 -1 13 4 6 6 35 16 62 23 53 13 195 66
280 103 77 34 359 177 365 185 3 5 21 15 40 24 20 9 49 28 65 42 17 14 36 26
43 26 6 0 12 4 12 9 0 5 8 12 18 15 10 4 27 14 38 24 10 9 37 29 59 44 22 14
54 39 70 55 17 15 60 51 95 80 84 66 390 381 390 400 0 5 8 16 18 24 22 18
180 238 209 289 11 19 45 78 75 130 51 89 95 177 131 260 60 141 87 209 87
224 0 9 4 16 8 16 5 0 9 6 10 13 2 31 15 82 20 87 7 5 14 25 16 50 1 9 5 20 9
26 3 6 8 24 11 40 3 16 12 54 20 86 9 31 20 82 25 115 6 32 12 69 15 83 30
165 40 284 40 505 0 137 -5 279 -12 330 -7 50 -14 104 -17 122 -2 18 -6 36 -8
40 -3 4 -8 34 -11 66 -4 32 -9 64 -11 70 -3 7 -6 23 -9 37 -2 14 -9 45 -16 70
-7 25 -14 55 -16 66 -17 93 -120 373 -195 532 -27 57 -49 106 -49 108 0 3 -9
14 -20 26 -11 12 -20 30 -20 39 0 10 -4 20 -9 23 -5 3 -28 39 -52 81 -23 41
-46 75 -51 75 -4 0 -8 4 -8 9 0 12 -61 105 -72 109 -4 2 -8 10 -8 18 0 8 -4
14 -8 14 -4 0 -15 12 -24 28 -9 15 -29 41 -45 59 -45 51 -63 73 -63 78 0 15
-301 320 -360 364 -19 14 -48 38 -65 53 -16 14 -64 51 -105 81 -41 31 -87 65
-102 76 -14 12 -31 21 -37 21 -6 0 -11 4 -11 9 0 5 -13 14 -30 21 -16 7 -30
16 -30 21 0 5 -5 9 -11 9 -6 0 -39 17 -73 37 -33 21 -63 38 -66 38 -3 1 -16 7
-30 15 -59 33 -196 100 -205 100 -6 0 -17 6 -23 13 -7 6 -16 12 -20 13 -23 2
-70 19 -88 31 -11 7 -24 10 -27 6 -4 -3 -7 -1 -7 5 0 7 -3 11 -7 10 -5 -2 -28
4 -53 13 -55 20 -152 49 -163 49 -4 0 -23 6 -42 14 -32 14 -196 52 -262 61
-15 2 -62 9 -103 15 -88 14 -145 20 -215 24 -28 1 -56 5 -62 9 -7 4 -14 3 -18
-3 -4 -6 -11 -7 -17 -4 -11 7 -287 12 -293 5z m405 -165 c36 -3 83 -8 105 -10
22 -3 65 -8 95 -12 30 -3 63 -10 72 -15 9 -5 27 -9 40 -9 13 0 59 -9 102 -20
44 -11 90 -22 103 -24 12 -3 28 -8 35 -13 7 -4 18 -8 23 -8 15 0 234 -75 285
-97 145 -63 273 -127 390 -196 79 -46 184 -116 225 -149 6 -5 26 -19 45 -33
19 -13 37 -27 40 -30 3 -3 25 -21 49 -40 25 -19 54 -44 66 -55 11 -11 51 -48
88 -82 37 -35 64 -63 60 -63 -5 0 4 -8 18 -18 14 -9 45 -39 69 -67 23 -27 51
-59 61 -70 10 -11 30 -32 44 -47 14 -15 25 -31 25 -37 0 -5 4 -11 8 -13 8 -3
88 -107 114 -149 9 -14 25 -34 35 -44 10 -10 17 -21 17 -24 -1 -3 11 -24 25
-46 70 -103 204 -370 245 -490 10 -27 25 -65 33 -84 17 -37 31 -83 39 -120 3
-14 8 -29 12 -35 3 -6 7 -15 8 -21 7 -34 12 -52 17 -65 3 -8 8 -26 10 -40 3
-14 8 -36 11 -50 16 -63 37 -169 41 -205 3 -22 7 -58 10 -80 3 -22 8 -62 11
-90 3 -27 6 -153 6 -280 0 -206 -3 -282 -16 -380 -3 -16 -7 -52 -11 -80 -3
-27 -11 -70 -16 -95 -6 -25 -13 -54 -15 -65 -2 -11 -6 -29 -9 -40 -3 -11 -9
-40 -14 -65 -5 -25 -17 -64 -25 -88 -8 -23 -15 -43 -15 -45 0 -1 -2 -9 -5 -17
-2 -8 -12 -40 -22 -70 -9 -30 -21 -61 -27 -67 -5 -7 -6 -13 -2 -13 4 0 2 -6
-4 -14 -7 -8 -14 -23 -16 -35 -5 -29 -57 -145 -68 -152 -5 -4 -7 -11 -4 -16 4
-5 -1 -21 -11 -34 -9 -13 -29 -50 -44 -81 -33 -71 -111 -202 -169 -287 -24
-35 -48 -71 -54 -79 -5 -9 -20 -27 -32 -41 -13 -14 -23 -29 -23 -32 0 -3 -10
-18 -22 -32 -13 -14 -41 -47 -63 -74 -51 -61 -326 -333 -401 -396 -32 -26 -63
-47 -71 -47 -7 0 -13 -6 -13 -14 0 -8 -13 -19 -30 -25 -16 -5 -30 -15 -30 -20
0 -6 -7 -11 -15 -11 -8 0 -15 -3 -15 -8 0 -4 -16 -16 -35 -26 -19 -11 -35 -23
-35 -28 0 -5 -4 -7 -9 -4 -5 4 -11 3 -13 -2 -14 -34 -495 -274 -530 -264 -5 1
-8 -2 -8 -7 0 -5 -15 -12 -32 -16 -18 -4 -35 -8 -38 -9 -3 -1 -10 -5 -17 -9
-12 -8 -133 -46 -165 -52 -10 -2 -23 -7 -28 -10 -6 -4 -24 -8 -40 -10 -16 -2
-48 -9 -72 -15 -64 -18 -111 -27 -225 -44 -36 -6 -145 -18 -203 -23 -135 -12
-486 -4 -570 12 -14 2 -52 7 -85 10 -32 3 -75 10 -95 15 -19 5 -51 11 -70 14
-19 2 -52 10 -74 16 -21 6 -47 14 -57 16 -11 2 -28 6 -39 9 -11 3 -28 7 -37 9
-58 13 -323 110 -393 143 -19 10 -37 18 -40 18 -9 1 -214 106 -225 115 -5 4
-26 17 -46 28 -61 34 -82 47 -98 59 -28 22 -185 133 -213 151 -16 9 -28 23
-28 29 0 7 -4 12 -9 10 -19 -5 -260 225 -378 361 -32 37 -70 80 -85 97 -16 16
-28 36 -28 43 0 6 -4 12 -9 12 -7 0 -30 32 -83 115 -7 11 -16 22 -20 25 -26
20 -228 395 -228 424 0 8 -6 19 -14 23 -8 4 -14 12 -14 16 1 11 -33 103 -64
177 -17 39 -64 191 -72 230 -3 14 -12 54 -21 90 -9 36 -18 74 -20 85 -2 11
-10 64 -19 117 -24 140 -28 215 -29 468 -1 203 5 334 18 413 3 15 7 38 9 52 6
36 30 169 31 175 1 3 7 25 14 50 7 25 14 52 16 60 5 24 43 164 49 180 3 8 11
29 17 45 7 17 13 35 14 41 2 6 10 27 20 47 9 19 18 41 19 49 2 13 38 95 79
178 30 61 159 294 167 300 3 3 20 28 38 55 17 28 40 60 49 71 10 12 25 32 33
44 76 114 342 393 485 509 39 31 72 59 75 63 11 14 251 177 310 210 25 14 61
34 81 46 65 36 73 40 169 85 52 24 142 61 200 81 58 21 112 41 120 44 18 6 13
5 70 22 25 7 54 15 64 17 11 2 25 8 33 14 7 6 13 9 13 6 0 -3 16 -1 36 5 46
12 71 18 109 24 17 3 37 7 45 11 8 3 29 7 45 8 17 2 50 6 75 10 93 12 127 16
204 20 44 3 81 6 83 9 5 5 324 -1 403 -8z"/>
<path d="M3397 4193 c-4 -3 -7 -58 -7 -122 0 -64 4 -110 8 -104 7 12 15 233 8
233 -1 0 -6 -3 -9 -7z"/>
<path d="M5287 4180 c-4 -14 -6 -38 -6 -55 0 -16 0 -41 0 -55 -2 -67 4 -130
11 -130 9 0 9 4 12 131 0 48 -2 97 -5 110 l-6 24 -6 -25z"/>
<path d="M3059 4180 c-12 -7 -15 -28 -13 -112 1 -57 2 -110 3 -118 4 -24 19
22 16 48 -2 16 3 22 19 23 63 4 92 15 115 42 37 46 16 92 -53 112 -57 17 -65
18 -87 5z m87 -24 c34 -5 44 -15 44 -45 0 -37 -25 -58 -77 -65 -39 -5 -43 -3
-44 17 0 12 -2 41 -3 65 -3 43 -3 43 28 37 17 -3 40 -7 52 -9z"/>
<path d="M5622 4160 c3 -16 2 -31 -1 -31 -3 -1 -22 -2 -41 -3 -56 -3 -85 -31
-96 -95 -4 -23 23 -79 43 -89 10 -5 25 -8 33 -6 71 17 73 17 65 3 -6 -10 -5
-11 4 -3 7 7 12 45 13 100 1 135 -1 154 -13 154 -7 0 -10 -12 -7 -30z m-23
-59 c23 -15 23 -95 0 -125 -11 -14 -27 -26 -34 -26 -22 0 -64 47 -60 67 2 10
4 25 4 34 1 22 38 59 59 59 9 0 23 -4 31 -9z"/>
<path d="M1688 4169 c-4 -12 -4 -69 1 -177 0 -18 4 -31 9 -29 4 3 7 44 7 91 0
47 0 86 1 86 1 0 29 -37 62 -83 63 -87 89 -114 98 -104 13 12 12 217 0 217 -8
0 -12 -26 -11 -81 0 -44 -2 -85 -5 -90 -5 -8 -39 30 -80 91 -36 54 -77 93 -82
79z"/>
<path d="M4557 4173 c-10 -17 -8 -223 3 -223 5 0 11 17 11 38 2 71 -1 67 64
64 83 -3 84 -4 81 -57 -3 -49 17 -82 27 -45 3 11 1 22 -4 25 -4 3 -4 17 1 31
8 19 7 23 -3 18 -9 -6 -9 -4 -1 7 5 8 9 25 7 39 -2 14 -4 44 -5 67 -3 54 -18
40 -21 -18 l-3 -44 -69 0 -70 0 -2 48 c-1 48 -7 65 -16 50z"/>
<path d="M2430 4165 c-1 -5 -2 -13 -1 -17 0 -5 -8 -13 -18 -20 -16 -10 -17
-14 -5 -25 12 -13 20 -59 15 -87 -1 -6 5 -26 14 -46 16 -35 48 -50 60 -29 4 5
0 9 -8 9 -26 0 -39 28 -41 90 -3 60 2 67 37 61 4 0 7 6 7 14 0 9 -9 15 -24 15
-18 0 -26 7 -29 23 -2 12 -5 18 -7 12z"/>
<path d="M2733 4143 c-14 -32 -73 -186 -73 -190 0 -2 4 -3 9 -3 5 0 14 13 19
29 10 27 13 29 71 29 49 0 61 -4 66 -18 3 -10 15 -28 27 -41 18 -21 20 -21 14
-4 -5 11 -15 40 -25 65 -9 25 -20 48 -26 52 -5 4 -7 8 -3 8 12 0 -43 100 -55
100 -7 0 -17 -12 -24 -27z m50 -44 c22 -51 17 -66 -20 -67 -37 0 -55 15 -44
36 5 10 14 29 22 45 7 15 15 27 18 27 4 0 14 -19 24 -41z"/>
<path d="M2125 4123 c-31 -8 -44 -22 -56 -63 -29 -95 75 -166 139 -94 38 44
25 130 -25 153 -25 12 -26 12 -58 4z m65 -35 c41 -36 12 -139 -39 -138 -34 1
-63 38 -64 81 -2 67 55 98 103 57z"/>
<path d="M3613 4120 c-34 -14 -28 -18 22 -18 45 1 75 -14 75 -38 0 -8 -6 -14
-12 -15 -69 -3 -125 -40 -112 -73 10 -27 55 -45 84 -34 14 5 32 7 41 5 14 -4
18 5 21 49 1 30 0 54 -4 54 -3 0 -9 13 -13 29 -3 16 -12 33 -18 38 -17 12 -58
14 -84 3z m94 -107 c10 -24 -38 -62 -72 -56 -20 4 -25 11 -23 27 5 37 83 62
95 29z"/>
<path d="M3947 4106 c-45 -38 -53 -73 -25 -124 17 -33 56 -50 93 -41 30 7 30
10 -2 13 -63 6 -100 54 -81 107 12 35 62 58 89 41 15 -10 19 -9 19 3 0 8 -3
16 -7 17 -36 7 -65 2 -86 -16z"/>
<path d="M4264 4120 c-11 -5 -29 -24 -38 -44 -30 -64 -3 -128 59 -137 28 -4
75 9 75 22 0 6 -4 7 -10 4 -23 -14 -79 -12 -93 4 -24 28 -28 51 -9 52 9 1 36
2 60 4 53 3 66 14 53 46 -16 45 -56 64 -97 49z m67 -31 c27 -27 14 -40 -44
-43 -56 -4 -68 14 -30 44 33 25 48 25 74 -1z"/>
<path d="M4959 4099 c-63 -68 -15 -170 77 -160 22 2 54 39 60 69 13 63 -17
106 -81 118 -20 4 -33 -3 -56 -27z m91 -7 c64 -52 -3 -172 -69 -123 -42 32
-38 113 7 130 37 13 37 13 62 -7z"/>
<path d="M5867 4112 c-82 -50 -36 -192 56 -175 42 8 47 27 6 21 -45 -7 -56 -2
-74 33 -17 33 -19 32 73 32 23 0 42 5 43 11 4 34 -6 62 -24 76 -31 21 -48 21
-80 2z m75 -27 c14 -32 8 -37 -44 -39 -37 -1 -43 2 -43 19 0 19 36 45 63 45 7
0 18 -11 24 -25z"/>
<path d="M6225 4122 c-11 -2 -25 -8 -32 -14 -7 -6 -14 -5 -18 3 -14 22 -21
-10 -21 -88 1 -92 20 -109 24 -22 3 71 15 99 42 99 10 0 22 5 25 11 9 14 4 16
-20 11z"/>
</g>
</svg>
